<svg width="30" height="30" viewBox="0 0 30 30" fill="none" xmlns="http://www.w3.org/2000/svg">
<path d="M25.7737 10.875C24.4737 5.0875 19.4237 2.5 14.9987 2.5H14.9862C10.5737 2.5 5.53621 5.0875 4.22371 10.8625C2.74871 17.3125 6.69871 22.775 10.2737 26.225C11.5409 27.4515 13.2352 28.1373 14.9987 28.1375C16.6987 28.1375 18.3987 27.5 19.7112 26.225C23.2862 22.775 27.2362 17.325 25.7737 10.875ZM18.4362 14.6875H15.9362V17.1875C15.9362 17.7 15.5112 18.125 14.9987 18.125C14.4862 18.125 14.0612 17.7 14.0612 17.1875V14.6875H11.5612C11.0487 14.6875 10.6237 14.2625 10.6237 13.75C10.6237 13.2375 11.0487 12.8125 11.5612 12.8125H14.0612V10.3125C14.0612 9.8 14.4862 9.375 14.9987 9.375C15.5112 9.375 15.9362 9.8 15.9362 10.3125V12.8125H18.4362C18.9487 12.8125 19.3737 13.2375 19.3737 13.75C19.3737 14.2625 18.9487 14.6875 18.4362 14.6875Z" fill="white"/>
</svg>
