<svg width="30" height="30" viewBox="0 0 30 30" fill="none" xmlns="http://www.w3.org/2000/svg">
<path d="M21.25 5H8.75C5 5 2.5 6.875 2.5 11.25V15.7C2.5 16.1625 2.975 16.45 3.3875 16.2625C4.6125 15.7 6.025 15.4875 7.5125 15.75C10.8 16.3375 13.2125 19.3875 13.125 22.725C13.1125 23.25 13.0375 23.7625 12.9 24.2625C12.8 24.65 13.1125 25.0125 13.5125 25.0125H21.25C25 25.0125 27.5 23.1375 27.5 18.7625V11.25C27.5 6.875 25 5 21.25 5ZM15 18.125C14.1712 18.125 13.3763 17.7958 12.7903 17.2097C12.2042 16.6237 11.875 15.8288 11.875 15C11.875 14.1712 12.2042 13.3763 12.7903 12.7903C13.3763 12.2042 14.1712 11.875 15 11.875C15.8288 11.875 16.6237 12.2042 17.2097 12.7903C17.7958 13.3763 18.125 14.1712 18.125 15C18.125 15.8288 17.7958 16.6237 17.2097 17.2097C16.6237 17.7958 15.8288 18.125 15 18.125ZM24.0625 17.5C24.0625 18.0125 23.6375 18.4375 23.125 18.4375C22.6125 18.4375 22.1875 18.0125 22.1875 17.5V12.5C22.1875 11.9875 22.6125 11.5625 23.125 11.5625C23.6375 11.5625 24.0625 11.9875 24.0625 12.5V17.5Z" fill="white"/>
<path d="M6.25 17.5C3.4875 17.5 1.25 19.7375 1.25 22.5C1.25 23.4375 1.5125 24.325 1.975 25.075C2.41567 25.8156 3.04161 26.4287 3.7912 26.8539C4.5408 27.2791 5.3882 27.5018 6.25 27.5C8.075 27.5 9.6625 26.525 10.525 25.075C10.9875 24.325 11.25 23.4375 11.25 22.5C11.25 19.7375 9.0125 17.5 6.25 17.5ZM8.7125 22.0875L6.05 24.55C5.875 24.7125 5.6375 24.8 5.4125 24.8C5.175 24.8 4.9375 24.7125 4.75 24.525L3.5125 23.2875C3.33815 23.1111 3.24037 22.873 3.24037 22.625C3.24037 22.377 3.33815 22.1389 3.5125 21.9625C3.875 21.6 4.475 21.6 4.8375 21.9625L5.4375 22.5625L7.4375 20.7125C7.8125 20.3625 8.4125 20.3875 8.7625 20.7625C9.1125 21.1375 9.0875 21.7375 8.7125 22.0875Z" fill="white"/>
</svg>
