<svg width="30" height="30" viewBox="0 0 30 30" fill="none" xmlns="http://www.w3.org/2000/svg">
<path d="M27.9166 2.08337L23.3333 6.66671M27.9166 2.08337H22.4999M27.9166 2.08337V7.50004M18.5416 17.9167C19.3897 17.9167 20.2295 17.7497 21.0131 17.4251C21.7966 17.1005 22.5086 16.6248 23.1083 16.0251C23.708 15.4254 24.1837 14.7134 24.5083 13.9299C24.8329 13.1463 24.9999 12.3065 24.9999 11.4584C24.9999 10.6103 24.8329 9.77044 24.5083 8.98688C24.1837 8.20332 23.708 7.49135 23.1083 6.89164C22.5086 6.29193 21.7966 5.81621 21.0131 5.49165C20.2295 5.16709 19.3897 5.00004 18.5416 5.00004C16.8287 5.00004 15.186 5.68047 13.9749 6.89164C12.7637 8.10281 12.0833 9.74552 12.0833 11.4584C12.0833 13.1712 12.7637 14.8139 13.9749 16.0251C15.186 17.2363 16.8287 17.9167 18.5416 17.9167Z" stroke="white" stroke-width="1.5" stroke-linecap="round" stroke-linejoin="round"/>
<path d="M10.8334 22.7778C12.5094 22.7778 14.1168 22.112 15.3019 20.9269C16.487 19.7418 17.1528 18.1344 17.1528 16.4584C17.1528 14.7823 16.487 13.175 15.3019 11.9898C14.1168 10.8047 12.5094 10.1389 10.8334 10.1389C9.15734 10.1389 7.54996 10.8047 6.36484 11.9898C5.17971 13.175 4.51392 14.7823 4.51392 16.4584C4.51392 18.1344 5.17971 19.7418 6.36484 20.9269C7.54996 22.112 9.15734 22.7778 10.8334 22.7778ZM10.8334 22.7778V28.1945M13.5417 25.4861H8.12503" stroke="white" stroke-width="1.5" stroke-linecap="round" stroke-linejoin="round"/>
</svg>
