<svg width="30" height="30" viewBox="0 0 30 30" fill="none" xmlns="http://www.w3.org/2000/svg">
<path d="M15 2.5C8.1 2.5 2.5 8.1 2.5 15C2.5 21.9 8.1 27.5 15 27.5C21.9 27.5 27.5 21.9 27.5 15C27.5 8.1 21.9 2.5 15 2.5ZM15.4125 21.25C15.1875 21.325 14.8 21.325 14.575 21.25C12.625 20.5875 8.25 17.8 8.25 13.075C8.25 10.9875 9.925 9.3 12 9.3C13.225 9.3 14.3125 9.8875 15 10.8125C15.675 9.9 16.775 9.3 18 9.3C20.075 9.3 21.75 10.9875 21.75 13.075C21.75 17.8 17.375 20.5875 15.4125 21.25Z" fill="white"/>
</svg>
