<svg width="30" height="30" viewBox="0 0 30 30" fill="none" xmlns="http://www.w3.org/2000/svg">
<path d="M26.0751 10.4626L17.4126 3.53756C16.0751 2.46256 13.9126 2.46256 12.5876 3.52506L3.92509 10.4626C2.95009 11.2376 2.32509 12.8751 2.53759 14.1001L4.20009 24.0501C4.50009 25.8251 6.20009 27.2626 8.00009 27.2626H22.0001C23.7876 27.2626 25.5001 25.8126 25.8001 24.0501L27.4626 14.1001C27.6626 12.8751 27.0376 11.2376 26.0751 10.4626ZM15.0001 19.3751C14.1713 19.3751 13.3764 19.0458 12.7904 18.4598C12.2043 17.8737 11.8751 17.0789 11.8751 16.2501C11.8751 15.4213 12.2043 14.6264 12.7904 14.0403C13.3764 13.4543 14.1713 13.1251 15.0001 13.1251C15.8289 13.1251 16.6237 13.4543 17.2098 14.0403C17.7958 14.6264 18.1251 15.4213 18.1251 16.2501C18.1251 17.0789 17.7958 17.8737 17.2098 18.4598C16.6237 19.0458 15.8289 19.3751 15.0001 19.3751Z" fill="white"/>
</svg>
