<svg width="216" height="176" viewBox="0 0 216 176" fill="none" xmlns="http://www.w3.org/2000/svg">
<path d="M143.835 175.716L143.789 175.712L72.1652 169.011L7.03507 175.104C5.33455 175.263 3.64093 174.736 2.32679 173.637C1.01264 172.539 0.185619 170.96 0.0276554 169.247C0.00926984 169.048 6.97018e-05 168.848 5.37264e-05 168.647V12.661C-0.00652017 11.0431 0.590402 9.48175 1.67264 8.286C2.75487 7.09025 4.24352 6.34731 5.84383 6.20428L72.1652 0L72.2111 0.00438174L143.835 6.70455L208.965 0.611828C210.665 0.452745 212.359 0.980451 213.673 2.07885C214.987 3.17726 215.814 4.75638 215.972 6.46884C215.991 6.66821 216 6.86812 216 7.06856V163.055C216.007 164.673 215.41 166.234 214.327 167.43C213.245 168.626 211.757 169.369 210.156 169.512L143.835 175.716Z" fill="#3F3D56"/>
<path d="M99.8419 57.7073C85.9773 47.5389 71.3896 37.8967 56.4874 29.0502L55.7394 28.6063V58.6101H101.073L99.8419 57.7073ZM56.7301 57.6125V30.3546C70.9067 38.7996 84.7886 47.9629 98.0265 57.6125L56.7301 57.6125ZM170.009 119.368C164.013 113.091 157.862 106.956 151.555 100.965C149.817 99.3111 148.067 97.6708 146.307 96.0438C135.566 86.1074 124.471 76.6573 113.023 67.6936L112.889 67.5888H55.7394V120.214H170.817L170.009 119.368ZM56.7301 119.216V68.5864H112.55C123.588 77.2334 134.328 86.3643 144.769 95.979C146.582 97.6475 148.383 99.3293 150.171 101.024C156.422 106.94 162.527 113.004 168.486 119.216H56.7301ZM170.009 119.368C164.013 113.091 157.862 106.956 151.555 100.965C149.817 99.3111 148.067 97.6708 146.307 96.0438C135.566 86.1074 124.471 76.6573 113.023 67.6936L112.889 67.5888H55.7394V120.214H170.817L170.009 119.368ZM56.7301 119.216V68.5864H112.55C123.588 77.2334 134.328 86.3643 144.769 95.979C146.582 97.6475 148.383 99.3293 150.171 101.024C156.422 106.94 162.527 113.004 168.486 119.216H56.7301ZM99.8419 57.7073C85.9773 47.5389 71.3896 37.8967 56.4874 29.0502L55.7394 28.6063V58.6101H101.073L99.8419 57.7073ZM56.7301 57.6125V30.3546C70.9067 38.7996 84.7886 47.9629 98.0265 57.6125L56.7301 57.6125ZM99.8419 57.7073C85.9773 47.5389 71.3896 37.8967 56.4874 29.0502L55.7394 28.6063V58.6101H101.073L99.8419 57.7073ZM56.7301 57.6125V30.3546C70.9067 38.7996 84.7886 47.9629 98.0265 57.6125L56.7301 57.6125ZM170.009 119.368C164.013 113.091 157.862 106.956 151.555 100.965C149.817 99.3111 148.067 97.6708 146.307 96.0438C135.566 86.1074 124.471 76.6573 113.023 67.6936L112.889 67.5888H55.7394V120.214H170.817L170.009 119.368ZM56.7301 119.216V68.5864H112.55C123.588 77.2334 134.328 86.3643 144.769 95.979C146.582 97.6475 148.383 99.3293 150.171 101.024C156.422 106.94 162.527 113.004 168.486 119.216H56.7301ZM6.70583 129.193V130.19H45.8326V144.656H6.70583V145.654H46.8233V129.193H6.70583ZM55.7394 154.632V164.741L56.7301 164.649V155.63H209.294V154.632L55.7394 154.632ZM209.294 130.19V129.193H55.7394V145.654H209.294V144.656H56.7301V130.19L209.294 130.19ZM116.778 57.6125C97.7718 42.8486 77.7005 29.5307 56.7301 17.7695V7.66846L55.7394 7.76074V17.94L56.5022 18.7846C77.3872 30.5138 97.3772 43.7907 116.307 58.5054L116.441 58.6101H209.294V57.6125L116.778 57.6125ZM45.8326 57.6125H6.70583V58.6101H46.8233V8.59376L45.8326 8.68604L45.8326 57.6125ZM209.294 67.5888H127.665L128.733 68.4717C138.783 76.7995 148.651 85.6318 158.336 94.9689C159.714 96.2957 161.086 97.6334 162.453 98.9818C169.259 105.678 175.932 112.594 182.472 119.728L183.289 120.214H209.294V119.216H183.351C176.882 112.153 170.272 105.294 163.523 98.6401C162.173 97.3083 160.818 95.9856 159.458 94.6721C149.983 85.5163 140.304 76.8211 130.424 68.5865H209.294V67.5888ZM6.70583 154.632V155.63H45.8326V165.666L46.8233 165.574V154.632H6.70583ZM6.70583 67.5888V68.5864H45.8326V119.216H6.70583V120.214H46.8233V67.5888H6.70583ZM99.8419 57.7073C85.9773 47.5389 71.3896 37.8967 56.4874 29.0502L55.7394 28.6063V58.6101H101.073L99.8419 57.7073ZM56.7301 57.6125V30.3546C70.9067 38.7996 84.7886 47.9629 98.0265 57.6125L56.7301 57.6125ZM170.009 119.368C164.013 113.091 157.862 106.956 151.555 100.965C149.817 99.3111 148.067 97.6708 146.307 96.0438C135.566 86.1074 124.471 76.6573 113.023 67.6936L112.889 67.5888H55.7394V120.214H170.817L170.009 119.368ZM56.7301 119.216V68.5864H112.55C123.588 77.2334 134.328 86.3643 144.769 95.979C146.582 97.6475 148.383 99.3293 150.171 101.024C156.422 106.94 162.527 113.004 168.486 119.216H56.7301ZM99.8419 57.7073C85.9773 47.5389 71.3896 37.8967 56.4874 29.0502L55.7394 28.6063V58.6101H101.073L99.8419 57.7073ZM56.7301 57.6125V30.3546C70.9067 38.7996 84.7886 47.9629 98.0265 57.6125L56.7301 57.6125ZM170.009 119.368C164.013 113.091 157.862 106.956 151.555 100.965C149.817 99.3111 148.067 97.6708 146.307 96.0438C135.566 86.1074 124.471 76.6573 113.023 67.6936L112.889 67.5888H55.7394V120.214H170.817L170.009 119.368ZM56.7301 119.216V68.5864H112.55C123.588 77.2334 134.328 86.3643 144.769 95.979C146.582 97.6475 148.383 99.3293 150.171 101.024C156.422 106.94 162.527 113.004 168.486 119.216H56.7301Z" fill="white"/>
<path d="M110.63 65.6505C110.63 78.2836 87.9151 106.426 87.9151 106.426C87.9151 106.426 65.2004 78.2836 65.2004 65.6505C65.2004 59.5839 67.5936 53.7658 71.8534 49.476C76.1132 45.1863 81.8908 42.7763 87.9151 42.7763C93.9394 42.7763 99.717 45.1863 103.977 49.476C108.237 53.7658 110.63 59.5839 110.63 65.6505Z" fill="#6C63FF"/>
<path d="M98.2993 64.656C98.2993 66.7242 97.6902 68.7459 96.5492 70.4655C95.4083 72.1851 93.7865 73.5254 91.8891 74.3168C89.9917 75.1083 87.9039 75.3153 85.8896 74.9119C83.8753 74.5084 82.0251 73.5125 80.5729 72.0501C79.1207 70.5877 78.1317 68.7244 77.731 66.696C77.3304 64.6676 77.536 62.5651 78.3219 60.6544C79.1079 58.7437 80.4388 57.1105 82.1464 55.9615C83.854 54.8125 85.8616 54.1992 87.9154 54.1992C89.2792 54.1986 90.6297 54.4686 91.8899 54.9939C93.15 55.5192 94.2949 56.2894 95.2593 57.2605C96.2236 58.2317 96.9885 59.3847 97.5101 60.6536C98.0317 61.9226 98.2999 63.2826 98.2993 64.656Z" fill="white"/>
<path d="M87.9151 122.935C91.2968 122.935 94.0382 120.175 94.0382 116.769C94.0382 113.364 91.2968 110.603 87.9151 110.603C84.5334 110.603 81.792 113.364 81.792 116.769C81.792 120.175 84.5334 122.935 87.9151 122.935Z" fill="#6C63FF"/>
<path d="M146.583 39.3627C151.583 39.3627 155.636 35.2811 155.636 30.2461C155.636 25.2112 151.583 21.1296 146.583 21.1296C141.583 21.1296 137.53 25.2112 137.53 30.2461C137.53 35.2811 141.583 39.3627 146.583 39.3627Z" fill="#FF6584"/>
<path d="M174.972 58.34H130.561C130.505 58.3407 130.449 58.3363 130.395 58.3267L151.399 21.6885C151.527 21.4603 151.713 21.2705 151.938 21.1384C152.163 21.0064 152.419 20.9368 152.679 20.9368C152.939 20.9368 153.195 21.0064 153.42 21.1384C153.645 21.2705 153.831 21.4603 153.959 21.6885L168.056 46.2756L168.731 47.4521L174.972 58.34Z" fill="white"/>
<path d="M174.972 58.34L159.809 58.34L168.056 46.2756L168.731 47.4521L174.972 58.34Z" fill="black"/>
<path d="M199.7 58.34H161.288L168.731 47.4521L178.966 32.4788C179.602 31.5488 181.132 31.4909 181.88 32.3034C181.93 32.3588 181.977 32.4174 182.019 32.4788L199.7 58.34Z" fill="white"/>
<path d="M202.55 109.988C205.081 109.988 207.132 107.922 207.132 105.373C207.132 102.825 205.081 100.759 202.55 100.759C200.02 100.759 197.968 102.825 197.968 105.373C197.968 107.922 200.02 109.988 202.55 109.988Z" fill="white"/>
<path d="M202.992 119.271H202.053L202.481 104.679L202.992 119.271Z" fill="#CBCBCB"/>
<path d="M202.564 107.444L203.571 106.04L202.55 107.792L202.44 107.597L202.564 107.444Z" fill="#CBCBCB"/>
<path d="M202.454 108.862L201.446 107.458L202.467 109.209L202.578 109.015L202.454 108.862Z" fill="#CBCBCB"/>
<path d="M189.522 105.56C193.259 105.56 196.289 102.509 196.289 98.7454C196.289 94.9819 193.259 91.9309 189.522 91.9309C185.785 91.9309 182.755 94.9819 182.755 98.7454C182.755 102.509 185.785 105.56 189.522 105.56Z" fill="white"/>
<path d="M190.174 119.271H188.788L189.42 97.7191L190.174 119.271Z" fill="#CBCBCB"/>
<path d="M189.542 101.804L191.03 99.7307L189.522 102.317L189.359 102.03L189.542 101.804Z" fill="#CBCBCB"/>
<path d="M189.379 103.897L187.891 101.824L189.4 104.41L189.563 104.123L189.379 103.897Z" fill="#CBCBCB"/>
<path d="M32.4129 109.988C34.9434 109.988 36.9948 107.922 36.9948 105.373C36.9948 102.825 34.9434 100.759 32.4129 100.759C29.8824 100.759 27.831 102.825 27.831 105.373C27.831 107.922 29.8824 109.988 32.4129 109.988Z" fill="white"/>
<path d="M32.8547 119.271H31.9163L32.344 104.679L32.8547 119.271Z" fill="#CBCBCB"/>
<path d="M32.4267 107.444L33.4343 106.04L32.4129 107.792L32.3027 107.597L32.4267 107.444Z" fill="#CBCBCB"/>
<path d="M32.3165 108.862L31.3088 107.458L32.3302 109.209L32.4405 109.015L32.3165 108.862Z" fill="#CBCBCB"/>
<path d="M19.3847 105.56C23.122 105.56 26.1518 102.509 26.1518 98.7454C26.1518 94.9819 23.122 91.9309 19.3847 91.9309C15.6474 91.9309 12.6177 94.9819 12.6177 98.7454C12.6177 102.509 15.6474 105.56 19.3847 105.56Z" fill="white"/>
<path d="M20.0369 119.271H18.651L19.283 97.7191L20.0369 119.271Z" fill="#CBCBCB"/>
<path d="M19.4052 101.804L20.893 99.7307L19.3848 102.317L19.2219 102.03L19.4052 101.804Z" fill="#CBCBCB"/>
<path d="M19.2423 103.897L17.7542 101.824L19.2626 104.41L19.4256 104.123L19.2423 103.897Z" fill="#CBCBCB"/>
</svg>
