<svg width="614" height="603" viewBox="0 0 614 603" fill="none" xmlns="http://www.w3.org/2000/svg">
<path d="M14.7903 492.648V456.32L105.877 312.818H137.198V363.102H118.661L61.2392 453.976V455.68H190.678V492.648H14.7903ZM119.513 531V481.568L120.366 465.482V312.818H163.618V531H119.513ZM306.96 535.794C288.636 535.723 272.869 531.213 259.659 522.264C246.52 513.315 236.399 500.354 229.297 483.379C222.265 466.405 218.785 445.986 218.856 422.122C218.856 398.33 222.372 378.053 229.403 361.291C236.506 344.53 246.626 331.781 259.765 323.045C272.976 314.239 288.707 309.835 306.96 309.835C325.213 309.835 340.909 314.239 354.048 323.045C367.258 331.852 377.415 344.636 384.517 361.398C391.619 378.088 395.135 398.33 395.064 422.122C395.064 446.057 391.513 466.511 384.41 483.486C377.379 500.46 367.294 513.422 354.155 522.371C341.015 531.32 325.284 535.794 306.96 535.794ZM306.96 497.548C319.46 497.548 329.439 491.263 336.896 478.692C344.354 466.121 348.047 447.264 347.976 422.122C347.976 405.574 346.271 391.795 342.862 380.787C339.524 369.778 334.765 361.504 328.586 355.964C322.479 350.425 315.27 347.655 306.96 347.655C294.531 347.655 284.588 353.869 277.131 366.298C269.673 378.727 265.909 397.335 265.838 422.122C265.838 438.884 267.507 452.875 270.845 464.097C274.254 475.247 279.048 483.628 285.227 489.239C291.406 494.778 298.65 497.548 306.96 497.548ZM424.654 492.648V456.32L515.74 312.818H547.061V363.102H528.524L471.102 453.976V455.68H600.541V492.648H424.654ZM529.377 531V481.568L530.229 465.482V312.818H573.482V531H529.377Z" fill="#0D7582"/>
<g clip-path="url(#clip0_857_282)">
<path d="M413.755 154.539C413.755 157.729 413.652 160.893 413.445 164.029C412.286 182.12 407.715 199.828 399.975 216.219C399.915 216.359 399.845 216.489 399.785 216.619C399.425 217.379 399.055 218.139 398.675 218.889C396.373 223.525 393.819 228.032 391.025 232.389C378.262 252.392 360.769 268.943 340.091 280.579C319.412 292.216 296.186 298.58 272.465 299.109L273.895 381.349L292.545 371.529L295.875 377.859L274.035 389.359L276.705 542.099L276.735 544.139L262.315 545.349L262.345 545.299L266.885 299.119C247.791 298.845 228.942 294.781 211.432 287.163C193.922 279.544 178.1 268.523 164.885 254.739C163.975 253.799 163.075 252.829 162.195 251.869C162.155 251.829 162.125 251.789 162.095 251.759C151.084 239.752 142.179 225.971 135.755 210.999C135.895 211.159 136.045 211.309 136.185 211.469C121.667 177.519 120.682 139.302 133.433 104.65C146.184 69.9968 171.704 41.5325 204.765 25.0894C205.265 24.8394 205.775 24.5993 206.275 24.3493C238.978 8.59717 276.406 5.70686 311.14 16.2513C345.873 26.7957 375.378 50.0052 393.805 81.2794C394.685 82.7594 395.535 84.2694 396.355 85.7894C407.802 106.895 413.783 130.53 413.755 154.539Z" fill="#E5E5E5"/>
<path d="M307.284 545.685C331.07 545.685 350.351 526.404 350.351 502.618C350.351 478.833 331.07 459.551 307.284 459.551C283.499 459.551 264.217 478.833 264.217 502.618C264.217 526.404 283.499 545.685 307.284 545.685Z" fill="#2F2E41"/>
<path d="M358.187 532.223H319.604V545.306H358.187V532.223Z" fill="#2F2E41"/>
<path d="M358.46 545.306C360.718 545.306 362.548 540.425 362.548 534.403C362.548 528.381 360.718 523.5 358.46 523.5C356.202 523.5 354.371 528.381 354.371 534.403C354.371 540.425 356.202 545.306 358.46 545.306Z" fill="#2F2E41"/>
<path d="M349.187 531.223H310.604V544.306H349.187V531.223Z" fill="#2F2E41"/>
<path d="M349.46 544.306C351.718 544.306 353.548 539.425 353.548 533.403C353.548 527.381 351.718 522.5 349.46 522.5C347.202 522.5 345.371 527.381 345.371 533.403C345.371 539.425 347.202 544.306 349.46 544.306Z" fill="#2F2E41"/>
<path d="M265.508 462.567C262.03 446.993 273.146 431.256 290.336 427.418C307.526 423.58 324.281 433.093 327.758 448.667C331.236 464.241 319.843 469.985 302.653 473.823C285.463 477.661 268.985 478.141 265.508 462.567Z" fill="#6C63FF"/>
<path d="M323.837 500.166C321.585 500.212 319.375 499.549 317.519 498.271C315.664 496.993 314.257 495.164 313.497 493.043C313.456 492.918 313.439 492.787 313.448 492.656C313.457 492.525 313.491 492.397 313.55 492.279C313.608 492.162 313.689 492.057 313.788 491.971C313.887 491.884 314.002 491.818 314.127 491.777C314.251 491.735 314.383 491.718 314.514 491.727C314.645 491.736 314.773 491.771 314.891 491.829C315.008 491.888 315.113 491.969 315.199 492.068C315.286 492.167 315.352 492.282 315.393 492.406C316.908 496.914 322.092 499.271 326.948 497.66C329.359 496.874 331.362 495.168 332.52 492.912C333.017 491.941 333.316 490.88 333.4 489.792C333.483 488.704 333.349 487.61 333.006 486.574C332.964 486.45 332.947 486.318 332.956 486.187C332.965 486.056 333 485.928 333.058 485.811C333.117 485.693 333.198 485.588 333.297 485.502C333.396 485.416 333.511 485.35 333.636 485.308C333.76 485.266 333.892 485.249 334.023 485.258C334.154 485.267 334.281 485.302 334.399 485.36C334.517 485.419 334.622 485.5 334.708 485.599C334.794 485.698 334.86 485.813 334.902 485.937C335.33 487.223 335.498 488.58 335.396 489.931C335.294 491.282 334.925 492.599 334.31 493.806C332.912 496.536 330.493 498.604 327.577 499.558C326.371 499.96 325.108 500.165 323.837 500.166Z" fill="white"/>
<path d="M343.022 506.019C344.178 508.28 344.389 510.907 343.608 513.322C342.827 515.738 341.118 517.745 338.858 518.901C336.598 520.057 333.971 520.267 331.555 519.486C329.139 518.706 327.133 516.997 325.977 514.737L325.968 514.72C323.566 510.011 326.886 507.088 331.595 504.685C336.304 502.283 340.619 501.31 343.022 506.019Z" fill="white"/>
<path d="M496.732 546.074H115.732C115.467 546.074 115.213 545.968 115.025 545.781C114.838 545.593 114.732 545.339 114.732 545.074C114.732 544.809 114.838 544.554 115.025 544.367C115.213 544.179 115.467 544.074 115.732 544.074H496.732C496.998 544.074 497.252 544.179 497.44 544.367C497.627 544.554 497.732 544.809 497.732 545.074C497.732 545.339 497.627 545.593 497.44 545.781C497.252 545.968 496.998 546.074 496.732 546.074Z" fill="#2CB069"/>
<path d="M297.649 559.633C301.66 558.598 302.241 547.401 298.945 534.624C295.65 521.847 289.727 512.327 285.716 513.362C281.705 514.396 281.124 525.593 284.42 538.37C287.715 551.148 293.638 560.667 297.649 559.633Z" fill="#2F2E41"/>
<path d="M369.965 451.278H353.579C353.423 451.278 353.271 451.231 353.142 451.143C353.014 451.054 352.915 450.929 352.858 450.784C352.802 450.638 352.791 450.479 352.828 450.327C352.864 450.175 352.945 450.038 353.061 449.933L367.961 436.438H354.194C353.989 436.438 353.792 436.357 353.648 436.212C353.503 436.067 353.421 435.87 353.421 435.665C353.421 435.46 353.503 435.264 353.648 435.119C353.792 434.974 353.989 434.893 354.194 434.893H369.965C370.121 434.893 370.274 434.94 370.402 435.028C370.531 435.116 370.63 435.242 370.686 435.387C370.742 435.533 370.753 435.692 370.717 435.844C370.681 435.996 370.6 436.133 370.484 436.238L355.584 449.733H369.965C370.17 449.733 370.367 449.814 370.512 449.959C370.656 450.104 370.738 450.301 370.738 450.505C370.738 450.71 370.656 450.907 370.512 451.052C370.367 451.197 370.17 451.278 369.965 451.278Z" fill="#CBCBCB"/>
<path d="M390.83 427.323H374.445C374.289 427.323 374.136 427.276 374.007 427.188C373.879 427.099 373.78 426.974 373.724 426.828C373.667 426.683 373.657 426.524 373.693 426.372C373.729 426.22 373.81 426.082 373.926 425.978L388.826 412.483H375.059C374.854 412.483 374.658 412.402 374.513 412.257C374.368 412.112 374.286 411.915 374.286 411.71C374.286 411.505 374.368 411.309 374.513 411.164C374.658 411.019 374.854 410.938 375.059 410.938H390.83C390.986 410.937 391.139 410.985 391.268 411.073C391.396 411.161 391.495 411.287 391.551 411.432C391.608 411.578 391.618 411.737 391.582 411.889C391.546 412.041 391.465 412.178 391.349 412.283L376.449 425.778H390.83C391.035 425.778 391.232 425.859 391.377 426.004C391.522 426.149 391.603 426.345 391.603 426.55C391.603 426.755 391.522 426.952 391.377 427.097C391.232 427.242 391.035 427.323 390.83 427.323Z" fill="#CBCBCB"/>
<path d="M381.557 401.05H365.171C365.015 401.05 364.863 401.003 364.734 400.915C364.605 400.826 364.506 400.701 364.45 400.555C364.394 400.41 364.383 400.251 364.419 400.099C364.456 399.947 364.537 399.809 364.652 399.705L379.553 386.21H365.786C365.581 386.21 365.384 386.129 365.239 385.984C365.094 385.839 365.013 385.642 365.013 385.437C365.013 385.232 365.094 385.036 365.239 384.891C365.384 384.746 365.581 384.665 365.786 384.665H381.557C381.713 384.665 381.865 384.712 381.994 384.8C382.123 384.888 382.222 385.014 382.278 385.159C382.334 385.305 382.345 385.464 382.309 385.616C382.273 385.768 382.191 385.905 382.076 386.01L367.176 399.505H381.557C381.762 399.505 381.958 399.586 382.103 399.731C382.248 399.876 382.33 400.073 382.33 400.277C382.33 400.482 382.248 400.679 382.103 400.824C381.958 400.969 381.762 401.05 381.557 401.05Z" fill="#CBCBCB"/>
<path d="M495.119 177.377L507.914 167.143C497.974 166.047 493.89 171.468 492.219 175.758C484.453 172.534 476 176.76 476 176.76L501.6 186.053C500.309 182.604 498.06 179.594 495.119 177.377Z" fill="#BDFF00"/>
<path d="M128.119 10.3768L140.914 0.143314C130.974 -0.953306 126.89 4.46759 125.219 8.7583C117.453 5.53384 109 9.75968 109 9.75968L134.6 19.0534C133.309 15.6039 131.06 12.594 128.119 10.3768Z" fill="#BDFF00"/>
<path d="M527.119 45.3768L539.914 35.1433C529.974 34.0467 525.89 39.4676 524.219 43.7583C516.453 40.5338 508 44.7597 508 44.7597L533.6 54.0534C532.309 50.6039 530.06 47.594 527.119 45.3768Z" fill="#BDFF00"/>
</g>
<defs>
<clipPath id="clip0_857_282">
<rect width="430.914" height="559.71" fill="white" transform="translate(109)"/>
</clipPath>
</defs>
</svg>
