<svg width="30" height="30" viewBox="0 0 30 30" fill="none" xmlns="http://www.w3.org/2000/svg">
<path d="M11.25 2.5C7.97495 2.5 5.31245 5.1625 5.31245 8.4375C5.31245 11.65 7.82495 14.25 11.1 14.3625C11.2 14.35 11.3 14.35 11.375 14.3625H11.4625C12.9991 14.3112 14.4557 13.6643 15.5241 12.5586C16.5925 11.4529 17.189 9.97505 17.1875 8.4375C17.1875 5.1625 14.525 2.5 11.25 2.5ZM17.6 17.6862C14.1125 15.3612 8.42495 15.3612 4.91245 17.6862C3.32495 18.7487 2.44995 20.1862 2.44995 21.7237C2.44995 23.2612 3.32495 24.6862 4.89995 25.7362C6.64995 26.9112 8.94995 27.4987 11.25 27.4987C13.55 27.4987 15.85 26.9112 17.6 25.7362C19.175 24.6737 20.05 23.2487 20.05 21.6987C20.0375 20.1612 19.175 18.7362 17.6 17.6862ZM24.9875 9.1725C25.1875 11.5975 23.4625 13.7225 21.075 14.01H21.0125C20.9375 14.01 20.8625 14.01 20.8 14.035C19.5875 14.0975 18.475 13.71 17.6375 12.9975C18.925 11.8475 19.6625 10.1225 19.5125 8.2475C19.4267 7.2725 19.0956 6.33507 18.55 5.5225C19.2049 5.20385 19.9276 5.04933 20.6556 5.07228C21.3837 5.09522 22.0952 5.29493 22.7288 5.65419C23.3624 6.01345 23.8991 6.52146 24.2926 7.13441C24.6861 7.74736 24.9246 8.44683 24.9875 9.1725Z" fill="white"/>
<path d="M27.4851 20.7375C27.3851 21.95 26.6101 23 25.3101 23.7125C24.0601 24.4 22.4851 24.725 20.9226 24.6875C21.8226 23.875 22.3476 22.8625 22.4476 21.7875C22.5726 20.2375 21.8351 18.75 20.3601 17.5625C19.5226 16.9 18.5476 16.375 17.4851 15.9875C20.2476 15.1875 23.7226 15.725 25.8601 17.45C27.0101 18.375 27.5976 19.5375 27.4851 20.7375Z" fill="white"/>
</svg>
