<svg width="22" height="22" viewBox="0 0 22 22" fill="none" xmlns="http://www.w3.org/2000/svg">
<path d="M10.5413 1.83333C5.73801 1.83333 1.83301 5.73833 1.83301 10.5417C1.83301 15.345 5.73801 19.25 10.5413 19.25C15.3447 19.25 19.2497 15.345 19.2497 10.5417C19.2497 5.73833 15.3447 1.83333 10.5413 1.83333ZM10.5413 12.6042H7.79134C7.41551 12.6042 7.10384 12.2925 7.10384 11.9167C7.10384 11.5408 7.41551 11.2292 7.79134 11.2292H10.5413C10.9172 11.2292 11.2288 11.5408 11.2288 11.9167C11.2288 12.2925 10.9172 12.6042 10.5413 12.6042ZM13.2913 9.85416H7.79134C7.41551 9.85416 7.10384 9.54249 7.10384 9.16666C7.10384 8.79083 7.41551 8.47916 7.79134 8.47916H13.2913C13.6672 8.47916 13.9788 8.79083 13.9788 9.16666C13.9788 9.54249 13.6672 9.85416 13.2913 9.85416ZM19.5247 20.1657C19.3597 20.1657 19.1947 20.1016 19.0755 19.9824L17.3705 18.2774C17.2515 18.1564 17.1848 17.9934 17.1848 17.8237C17.1848 17.6539 17.2515 17.4909 17.3705 17.3699C17.618 17.1224 18.0213 17.1224 18.278 17.3699L19.983 19.0749C20.2305 19.3224 20.2305 19.7257 19.983 19.9824C19.8547 20.1016 19.6897 20.1657 19.5247 20.1657Z" fill="white"/>
</svg>
