<svg width="22" height="22" viewBox="0 0 22 22" fill="none" xmlns="http://www.w3.org/2000/svg">
<path d="M10.5423 1.83337C5.73898 1.83337 1.83398 5.73837 1.83398 10.5417C1.83398 15.345 5.73898 19.25 10.5423 19.25C15.3457 19.25 19.2507 15.345 19.2507 10.5417C19.2507 5.73837 15.3457 1.83337 10.5423 1.83337ZM10.5423 12.6042H7.79232C7.41648 12.6042 7.10482 12.2925 7.10482 11.9167C7.10482 11.5409 7.41648 11.2292 7.79232 11.2292H10.5423C10.9182 11.2292 11.2298 11.5409 11.2298 11.9167C11.2298 12.2925 10.9182 12.6042 10.5423 12.6042ZM13.2923 9.85421H7.79232C7.41648 9.85421 7.10482 9.54254 7.10482 9.16671C7.10482 8.79087 7.41648 8.47921 7.79232 8.47921H13.2923C13.6682 8.47921 13.9798 8.79087 13.9798 9.16671C13.9798 9.54254 13.6682 9.85421 13.2923 9.85421ZM19.5257 20.1658C19.3607 20.1658 19.1957 20.1016 19.0765 19.9825L17.3715 18.2775C17.2525 18.1564 17.1858 17.9935 17.1858 17.8237C17.1858 17.654 17.2525 17.491 17.3715 17.37C17.619 17.1225 18.0223 17.1225 18.279 17.37L19.984 19.075C20.2315 19.3225 20.2315 19.7258 19.984 19.9825C19.8556 20.1016 19.6907 20.1658 19.5257 20.1658Z" fill="white"/>
</svg>
