<svg width="30" height="30" viewBox="0 0 30 30" fill="none" xmlns="http://www.w3.org/2000/svg">
<path d="M21.7375 19.5875L16.6875 15H13.3L8.24998 19.5875C7.56307 20.2012 7.08093 21.0109 6.86859 21.9072C6.65624 22.8035 6.72392 23.7434 7.06248 24.6C7.39402 25.4568 7.97783 26.1928 8.73671 26.7106C9.49558 27.2285 10.3938 27.5037 11.3125 27.5H18.675C20.575 27.5 22.2375 26.3625 22.925 24.6C23.6125 22.825 23.15 20.8625 21.7375 19.5875ZM17.275 22.675H12.725C12.4995 22.675 12.2833 22.5855 12.1239 22.4261C11.9645 22.2667 11.875 22.0505 11.875 21.825C11.875 21.3625 12.2625 20.975 12.725 20.975H17.275C17.75 20.975 18.125 21.3625 18.125 21.825C18.125 22.2875 17.7375 22.675 17.275 22.675ZM22.9375 5.40004C22.6059 4.54323 22.0221 3.80725 21.2632 3.28943C20.5044 2.7716 19.6062 2.49634 18.6875 2.50004H11.3125C10.393 2.49656 9.49408 2.77253 8.73493 3.29139C7.97578 3.81025 7.39219 4.54751 7.06146 5.4055C6.73073 6.26349 6.66849 7.20171 6.88297 8.09587C7.09744 8.99004 7.57853 9.79793 8.26248 10.4125L13.3125 15H16.7L21.75 10.4125C22.432 9.79541 22.9106 8.98583 23.1227 8.09083C23.3347 7.19583 23.2701 6.25755 22.9375 5.40004ZM17.275 9.03754H12.725C12.4995 9.03754 12.2833 8.94798 12.1239 8.78858C11.9645 8.62917 11.875 8.41297 11.875 8.18754C11.875 7.72504 12.2625 7.33754 12.725 7.33754H17.275C17.75 7.33754 18.125 7.72504 18.125 8.18754C18.125 8.65004 17.7375 9.03754 17.275 9.03754Z" fill="white"/>
</svg>
